<svg xmlns="http://www.w3.org/2000/svg" xmlns:svg="http://www.w3.org/2000/svg" id="svg8" width="155.428" height="46.214" version="1.1" viewBox="0 0 41.124 12.228"><metadata id="metadata5"/><g id="layer1" transform="translate(-48.041701,-104.83859)"><g id="text817" aria-label="LitHub" style="font-style:normal;font-weight:400;font-size:10.58333302px;line-height:1.25;font-family:sans-serif;letter-spacing:0;word-spacing:0;fill:#000;fill-opacity:1;stroke:none;stroke-width:.26458332"><path id="path823" d="m 62.337341,114.81548 q -0.05292,0 -0.08467,-0.0317 -0.03175,-0.0423 -0.02117,-0.0953 l 0.878417,-7.15433 q 0.01058,-0.0529 0.04233,-0.0847 0.04233,-0.0423 0.09525,-0.0423 h 1.4605 q 0.05292,0 0.08467,0.0423 0.03175,0.0318 0.02117,0.0847 l -0.709083,5.72558 q 0,0.0529 0.05292,0.0529 h 2.688166 q 0.05292,0 0.08467,0.0423 0.03175,0.0318 0.02117,0.0847 l -0.15875,1.24883 q 0,0.0529 -0.04233,0.0953 -0.04233,0.0317 -0.09525,0.0317 z" style="font-style:italic;font-variant:normal;font-weight:800;font-stretch:semi-condensed;font-family:'Barlow Semi Condensed';stroke-width:.26458332"/><path id="path825" d="m 68.975571,108.98407 q -0.391584,0 -0.635,-0.23284 -0.232834,-0.23283 -0.232834,-0.61383 0,-0.508 0.3175,-0.83608 0.328084,-0.32809 0.79375,-0.32809 0.402167,0 0.635,0.23284 0.232834,0.22225 0.232834,0.61383 0,0.51858 -0.3175,0.84667 -0.306917,0.3175 -0.79375,0.3175 z m -1.449917,5.83141 q -0.05292,0 -0.08467,-0.0317 -0.03175,-0.0423 -0.02117,-0.0953 l 0.635,-5.21758 q 0.01058,-0.0529 0.04233,-0.0847 0.04233,-0.0423 0.09525,-0.0423 h 1.4605 q 0.05292,0 0.08467,0.0423 0.03175,0.0318 0.02117,0.0847 l -0.635,5.21758 q -0.01058,0.0529 -0.05292,0.0953 -0.03175,0.0317 -0.08467,0.0317 z" style="font-style:italic;font-variant:normal;font-weight:800;font-stretch:semi-condensed;font-family:'Barlow Semi Condensed';stroke-width:.26458332"/><path id="path827" d="m 73.380221,110.52923 q -0.01058,0.0529 -0.05292,0.0953 -0.03175,0.0317 -0.08467,0.0317 h -0.73025 q -0.04233,0 -0.0635,0.0529 l -0.254,2.07433 q -0.01058,0.0423 -0.01058,0.127 0,0.381 0.370416,0.381 h 0.22225 q 0.116417,0 0.116417,0.127 l -0.15875,1.23825 q -0.02117,0.127 -0.137583,0.127 -0.423334,0.0212 -0.592667,0.0212 -0.772583,0 -1.164166,-0.21167 -0.381,-0.22225 -0.381,-0.83608 0,-0.0847 0.02117,-0.27517 l 0.338667,-2.77283 q 0,-0.0529 -0.04233,-0.0529 h -0.465667 q -0.05292,0 -0.08467,-0.0317 -0.03175,-0.0423 -0.02117,-0.0953 l 0.127,-1.05833 q 0.01058,-0.0529 0.04233,-0.0847 0.04233,-0.0423 0.09525,-0.0423 h 0.465667 q 0.05292,0 0.05292,-0.0529 l 0.15875,-1.22766 q 0.01058,-0.0529 0.04233,-0.0847 0.04233,-0.0423 0.09525,-0.0423 h 1.386416 q 0.05292,0 0.08467,0.0423 0.03175,0.0318 0.02117,0.0847 l -0.148166,1.22766 q -0.02117,0.0529 0.04233,0.0529 h 0.73025 q 0.05292,0 0.08467,0.0423 0.03175,0.0318 0.02117,0.0847 z" style="font-style:italic;font-variant:normal;font-weight:800;font-stretch:semi-condensed;font-family:'Barlow Semi Condensed';stroke-width:.26458332"/><path id="path829" d="m 77.528723,107.53415 q 0.01058,-0.0529 0.04233,-0.0847 0.04233,-0.0423 0.09525,-0.0423 h 1.460499 q 0.05292,0 0.08467,0.0423 0.03175,0.0318 0.02117,0.0847 l -0.878417,7.15433 q -0.01058,0.0529 -0.05292,0.0953 -0.03175,0.0317 -0.08467,0.0317 h -1.4605 q -0.05292,0 -0.08467,-0.0317 -0.03175,-0.0423 -0.02117,-0.0953 l 0.338666,-2.794 q 0,-0.0529 -0.04233,-0.0529 h -1.322917 q -0.04233,0 -0.0635,0.0529 l -0.338666,2.794 q -0.01058,0.0529 -0.05292,0.0953 -0.03175,0.0317 -0.08467,0.0317 h -1.4605 q -0.05292,0 -0.08467,-0.0317 -0.03175,-0.0423 -0.02117,-0.0953 l 0.878417,-7.15433 q 0.01058,-0.0529 0.04233,-0.0847 0.04233,-0.0423 0.09525,-0.0423 h 1.4605 q 0.05292,0 0.08467,0.0423 0.03175,0.0318 0.02117,0.0847 l -0.338666,2.75167 q 0,0.0529 0.04233,0.0529 h 1.322917 q 0.04233,0 0.0635,-0.0529 z" style="font-style:italic;font-variant:normal;font-weight:800;font-stretch:semi-condensed;font-family:'Barlow Semi Condensed';stroke-width:.26458332"/><path id="path831" d="m 82.452123,109.4709 q 0,-0.0529 0.04233,-0.0847 0.04233,-0.0423 0.09525,-0.0423 h 1.449917 q 0.116417,0 0.116417,0.127 l -0.645584,5.21758 q -0.01058,0.0529 -0.05292,0.0953 -0.03175,0.0317 -0.08467,0.0317 h -1.4605 q -0.05292,0 -0.08467,-0.0317 -0.03175,-0.0423 -0.02117,-0.0953 l 0.03175,-0.254 q 0.01058,-0.0317 -0.01058,-0.0317 -0.02117,-0.0106 -0.04233,0.0212 -0.41275,0.47625 -1.153583,0.47625 -0.624417,0 -1.016,-0.35983 -0.381,-0.37042 -0.381,-1.0795 0,-0.0952 0.02117,-0.32809 l 0.455084,-3.66183 q 0,-0.0529 0.04233,-0.0847 0.04233,-0.0423 0.09525,-0.0423 h 1.449917 q 0.116416,0 0.116416,0.127 l -0.402166,3.27025 q -0.01058,0.0529 -0.01058,0.14817 0,0.23283 0.116417,0.37041 0.116417,0.127 0.328083,0.127 0.211667,0 0.370417,-0.13758 0.15875,-0.13758 0.211667,-0.37042 z" style="font-style:italic;font-variant:normal;font-weight:800;font-stretch:semi-condensed;font-family:'Barlow Semi Condensed';stroke-width:.26458332"/><path id="path833" d="m 89.144262,110.94198 q 0.02117,0.254 0.02117,0.35984 0,0.23283 -0.05292,0.68791 -0.08467,0.71967 -0.232833,1.16417 -0.275167,0.8255 -0.73025,1.29117 -0.455083,0.45508 -1.100667,0.45508 -0.677333,0 -1.005416,-0.42333 -0.01058,-0.0212 -0.03175,-0.0106 -0.02117,0 -0.03175,0.0318 l -0.02117,0.1905 q -0.01058,0.0529 -0.05292,0.0953 -0.03175,0.0317 -0.08467,0.0317 h -1.4605 q -0.05292,0 -0.08467,-0.0317 -0.03175,-0.0423 -0.02117,-0.0953 l 0.878417,-7.15433 q 0.01058,-0.0529 0.04233,-0.0847 0.04233,-0.0423 0.09525,-0.0423 h 1.4605 q 0.05292,0 0.08467,0.0423 0.03175,0.0318 0.02117,0.0847 l -0.254,2.10608 q -0.01058,0.0318 0.01058,0.0423 0.02117,0 0.04233,-0.0212 0.402167,-0.40217 1.100667,-0.40217 0.656167,0 1.005417,0.4445 0.34925,0.43392 0.402166,1.23825 z m -1.894416,1.89442 q 0.09525,-0.3175 0.148166,-0.77258 0.04233,-0.381 0.04233,-0.56092 0,-0.34925 -0.116417,-0.53975 -0.105833,-0.20108 -0.328083,-0.20108 -0.391584,0 -0.5715,0.52916 -0.05292,0.1905 -0.09525,0.4445 -0.03175,0.24342 -0.04233,0.32809 -0.05292,0.40216 -0.05292,0.67733 0,0.30692 0.105833,0.48683 0.105833,0.16934 0.328083,0.16934 0.211667,0 0.359834,-0.14817 0.15875,-0.15875 0.22225,-0.41275 z" style="font-style:italic;font-variant:normal;font-weight:800;font-stretch:semi-condensed;font-family:'Barlow Semi Condensed';stroke-width:.26458332"/></g><circle id="path819" cx="54.155" cy="110.952" r="6.114" style="opacity:1;fill:#000;fill-opacity:1;stroke:none;stroke-width:.52916664;stroke-miterlimit:4;stroke-dasharray:none;stroke-opacity:1"/></g></svg>